<?xml version="1.0" encoding="utf-8"?>
<!-- Generator: Adobe Illustrator 16.0.0, SVG Export Plug-In . SVG Version: 6.00 Build 0)  -->
<!DOCTYPE svg PUBLIC "-//W3C//DTD SVG 1.1 Basic//EN" "http://www.w3.org/Graphics/SVG/1.1/DTD/svg11-basic.dtd">
<svg version="1.1" baseProfile="basic" id="Capa_1" xmlns="http://www.w3.org/2000/svg" xmlns:xlink="http://www.w3.org/1999/xlink"
	 x="0px" y="0px" width="52px" height="52px" viewBox="0 0 52 52" xml:space="preserve">
<g>
	<path d="M26,0.07c0,0-0.023,0.005,0,0.005S26,0.07,26,0.07z"/>
	<path d="M34.223,36.512C31.438,35.274,34.209,29,34.209,29s4.646-7.906,4.646-12.789C38.855,7.189,34.765,0.08,26,0.08
		c-9.145,0-14.109,7.026-14.109,16.048c0,4.883,5.396,12.925,5.396,12.925s3.209,6.222,0.424,7.459S-0.574,37.093-0.078,52H26h26
		C52.496,37.093,37.008,37.749,34.223,36.512z M28.932,47.752c-0.321,0.662-2.595,3.246-2.595,3.246s-0.222,0.174-0.376,0
		c-0.155-0.177-2.275-2.577-2.596-3.237c-0.321-0.662,3.042-7.087,1.548-9.423c0,0-0.634-0.564,1.139-0.564
		c2.205-0.012,1.332,0.608,1.332,0.608C25.459,40.713,29.253,47.091,28.932,47.752z"/>
</g>
</svg>
