<?xml version="1.0" encoding="utf-8"?>
<!-- Generator: Adobe Illustrator 16.0.0, SVG Export Plug-In . SVG Version: 6.00 Build 0)  -->
<!DOCTYPE svg PUBLIC "-//W3C//DTD SVG 1.1//EN" "http://www.w3.org/Graphics/SVG/1.1/DTD/svg11.dtd">
<svg version="1.1" id="Layer_1" xmlns="http://www.w3.org/2000/svg" xmlns:xlink="http://www.w3.org/1999/xlink" x="0px" y="0px"
	 width="48px" height="48px" viewBox="0 0 48 48" enable-background="new 0 0 48 48" xml:space="preserve">
<g>
	<path d="M41.316,2.683c0.27,0.467,0.456,0.991,0.524,1.546c0.123,1.04-0.17,2.066-0.796,2.903c1.131,0.721,1.867,1.985,1.867,3.417
		v15.471c0,1.993-1.574,3.581-3.567,3.581H8.754c-1.994,0-3.571-1.588-3.571-3.581V10.549c0-2.226,1.812-4.04,4.036-4.04h18.292
		l3.292-4.182H9.219C4.681,2.327,1,6.011,1,10.549v20.722c0,4.539,3.681,8.24,8.219,8.24h9.602v4.182h-4.611
		c-1.849,0-3.346,1.456-3.346,3.364h26.404c0-1.909-1.498-3.364-3.348-3.364h-4.555v-4.182h9.544c4.54,0,8.186-3.701,8.186-8.24
		V10.549C47.095,6.855,44.674,3.722,41.316,2.683z M24.065,36.557c-1.372,0-2.485-1.112-2.485-2.485
		c0-1.372,1.113-2.484,2.485-2.484c1.374,0,2.485,1.112,2.485,2.484C26.551,35.445,25.439,36.557,24.065,36.557z"/>
	<path d="M25.037,22.637L38.644,5.348c0.169-0.215,0.248-0.49,0.215-0.763s-0.172-0.521-0.389-0.691l-2.318-1.825
		c-0.188-0.149-0.416-0.222-0.639-0.222c-0.308,0-0.611,0.135-0.816,0.396L21.091,19.531L25.037,22.637z"/>
	<path d="M19.836,21.124c-0.043,0.057-0.072,0.122-0.087,0.192l-0.896,4.464c-0.032,0.168,0.029,0.34,0.165,0.446
		c0.08,0.064,0.18,0.097,0.279,0.097c0.066,0,0.131-0.014,0.192-0.042l4.128-1.921c0.065-0.03,0.122-0.074,0.165-0.131l0.012-0.014
		l-3.946-3.106L19.836,21.124z"/>
</g>
</svg>
